<mxfile host="Electron" modified="2024-03-23T12:18:23.755Z" agent="Mozilla/5.0 (X11; Linux x86_64) AppleWebKit/537.36 (KHTML, like Gecko) draw.io/23.1.5 Chrome/120.0.6099.109 Electron/28.1.0 Safari/537.36" etag="mPk-wMURljV6gunU86xN" version="23.1.5" type="device">
  <diagram name="Page-1" id="WmKcBqQ57zAdK9sFzErc">
    <mxGraphModel dx="2607" dy="4509" grid="1" gridSize="12" guides="1" tooltips="1" connect="1" arrows="1" fold="1" page="1" pageScale="1" pageWidth="1600" pageHeight="900" math="0" shadow="0">
      <root>
        <mxCell id="0" />
        <mxCell id="1" parent="0" />
        <mxCell id="fqKE6zB5EEerR9ECs1fo-1" value="purchaseRecords (Main Document)" style="swimlane;fontStyle=0;childLayout=stackLayout;horizontal=1;startSize=26;horizontalStack=0;resizeParent=1;resizeParentMax=0;resizeLast=0;collapsible=1;marginBottom=0;align=center;fontSize=14;" vertex="1" parent="1">
          <mxGeometry x="367" y="-2400" width="270" height="326" as="geometry" />
        </mxCell>
        <mxCell id="fqKE6zB5EEerR9ECs1fo-2" value="_id (objID_Main, unique)" style="text;strokeColor=default;fillColor=none;spacingLeft=4;spacingRight=4;overflow=hidden;rotatable=0;points=[[0,0.5],[1,0.5]];portConstraint=eastwest;fontSize=12;whiteSpace=wrap;html=1;" vertex="1" parent="fqKE6zB5EEerR9ECs1fo-1">
          <mxGeometry y="26" width="270" height="30" as="geometry" />
        </mxCell>
        <mxCell id="fqKE6zB5EEerR9ECs1fo-3" value="number (str)" style="text;strokeColor=default;fillColor=none;spacingLeft=4;spacingRight=4;overflow=hidden;rotatable=0;points=[[0,0.5],[1,0.5]];portConstraint=eastwest;fontSize=12;whiteSpace=wrap;html=1;" vertex="1" parent="fqKE6zB5EEerR9ECs1fo-1">
          <mxGeometry y="56" width="270" height="30" as="geometry" />
        </mxCell>
        <mxCell id="fqKE6zB5EEerR9ECs1fo-4" value="companyId (objId_ref)" style="text;strokeColor=default;fillColor=none;spacingLeft=4;spacingRight=4;overflow=hidden;rotatable=0;points=[[0,0.5],[1,0.5]];portConstraint=eastwest;fontSize=12;whiteSpace=wrap;html=1;" vertex="1" parent="fqKE6zB5EEerR9ECs1fo-1">
          <mxGeometry y="86" width="270" height="30" as="geometry" />
        </mxCell>
        <mxCell id="fqKE6zB5EEerR9ECs1fo-5" value="paymentType (str, fixed)" style="text;strokeColor=default;fillColor=none;spacingLeft=4;spacingRight=4;overflow=hidden;rotatable=0;points=[[0,0.5],[1,0.5]];portConstraint=eastwest;fontSize=12;whiteSpace=wrap;html=1;" vertex="1" parent="fqKE6zB5EEerR9ECs1fo-1">
          <mxGeometry y="116" width="270" height="30" as="geometry" />
        </mxCell>
        <mxCell id="fqKE6zB5EEerR9ECs1fo-6" value="totalPayment (int)" style="text;strokeColor=default;fillColor=none;spacingLeft=4;spacingRight=4;overflow=hidden;rotatable=0;points=[[0,0.5],[1,0.5]];portConstraint=eastwest;fontSize=12;whiteSpace=wrap;html=1;" vertex="1" parent="fqKE6zB5EEerR9ECs1fo-1">
          <mxGeometry y="146" width="270" height="30" as="geometry" />
        </mxCell>
        <mxCell id="fqKE6zB5EEerR9ECs1fo-7" value="debt (int)" style="text;strokeColor=default;fillColor=none;spacingLeft=4;spacingRight=4;overflow=hidden;rotatable=0;points=[[0,0.5],[1,0.5]];portConstraint=eastwest;fontSize=12;whiteSpace=wrap;html=1;" vertex="1" parent="fqKE6zB5EEerR9ECs1fo-1">
          <mxGeometry y="176" width="270" height="30" as="geometry" />
        </mxCell>
        <mxCell id="fqKE6zB5EEerR9ECs1fo-8" value="recordDate (date)" style="text;strokeColor=default;fillColor=none;spacingLeft=4;spacingRight=4;overflow=hidden;rotatable=0;points=[[0,0.5],[1,0.5]];portConstraint=eastwest;fontSize=12;whiteSpace=wrap;html=1;" vertex="1" parent="fqKE6zB5EEerR9ECs1fo-1">
          <mxGeometry y="206" width="270" height="30" as="geometry" />
        </mxCell>
        <mxCell id="fqKE6zB5EEerR9ECs1fo-9" value="createdAt (date)&amp;nbsp;" style="text;strokeColor=default;fillColor=none;spacingLeft=4;spacingRight=4;overflow=hidden;rotatable=0;points=[[0,0.5],[1,0.5]];portConstraint=eastwest;fontSize=12;whiteSpace=wrap;html=1;" vertex="1" parent="fqKE6zB5EEerR9ECs1fo-1">
          <mxGeometry y="236" width="270" height="30" as="geometry" />
        </mxCell>
        <mxCell id="fqKE6zB5EEerR9ECs1fo-10" value="updatedAt (date)" style="text;strokeColor=default;fillColor=none;spacingLeft=4;spacingRight=4;overflow=hidden;rotatable=0;points=[[0,0.5],[1,0.5]];portConstraint=eastwest;fontSize=12;whiteSpace=wrap;html=1;" vertex="1" parent="fqKE6zB5EEerR9ECs1fo-1">
          <mxGeometry y="266" width="270" height="30" as="geometry" />
        </mxCell>
        <mxCell id="fqKE6zB5EEerR9ECs1fo-11" value="transactions (objIds Array)" style="text;spacingLeft=4;spacingRight=4;overflow=hidden;rotatable=0;points=[[0,0.5],[1,0.5]];portConstraint=eastwest;fontSize=12;whiteSpace=wrap;html=1;" vertex="1" parent="fqKE6zB5EEerR9ECs1fo-1">
          <mxGeometry y="296" width="270" height="30" as="geometry" />
        </mxCell>
        <mxCell id="fqKE6zB5EEerR9ECs1fo-14" value="transactions (Main Document)" style="swimlane;fontStyle=0;childLayout=stackLayout;horizontal=1;startSize=26;horizontalStack=0;resizeParent=1;resizeParentMax=0;resizeLast=0;collapsible=1;marginBottom=0;align=center;fontSize=14;" vertex="1" parent="1">
          <mxGeometry x="731" y="-2688" width="240" height="326" as="geometry" />
        </mxCell>
        <mxCell id="fqKE6zB5EEerR9ECs1fo-15" value="_id (objID_Main, unique)" style="text;strokeColor=default;fillColor=none;spacingLeft=4;spacingRight=4;overflow=hidden;rotatable=0;points=[[0,0.5],[1,0.5]];portConstraint=eastwest;fontSize=12;whiteSpace=wrap;html=1;" vertex="1" parent="fqKE6zB5EEerR9ECs1fo-14">
          <mxGeometry y="26" width="240" height="30" as="geometry" />
        </mxCell>
        <mxCell id="fqKE6zB5EEerR9ECs1fo-16" value="amount (int)" style="text;strokeColor=default;fillColor=none;spacingLeft=4;spacingRight=4;overflow=hidden;rotatable=0;points=[[0,0.5],[1,0.5]];portConstraint=eastwest;fontSize=12;whiteSpace=wrap;html=1;" vertex="1" parent="fqKE6zB5EEerR9ECs1fo-14">
          <mxGeometry y="56" width="240" height="30" as="geometry" />
        </mxCell>
        <mxCell id="fqKE6zB5EEerR9ECs1fo-89" value="type (str, fixed values)" style="text;strokeColor=default;fillColor=none;spacingLeft=4;spacingRight=4;overflow=hidden;rotatable=0;points=[[0,0.5],[1,0.5]];portConstraint=eastwest;fontSize=12;whiteSpace=wrap;html=1;" vertex="1" parent="fqKE6zB5EEerR9ECs1fo-14">
          <mxGeometry y="86" width="240" height="30" as="geometry" />
        </mxCell>
        <mxCell id="fqKE6zB5EEerR9ECs1fo-21" value="payDate (date)" style="text;strokeColor=default;fillColor=none;spacingLeft=4;spacingRight=4;overflow=hidden;rotatable=0;points=[[0,0.5],[1,0.5]];portConstraint=eastwest;fontSize=12;whiteSpace=wrap;html=1;" vertex="1" parent="fqKE6zB5EEerR9ECs1fo-14">
          <mxGeometry y="116" width="240" height="30" as="geometry" />
        </mxCell>
        <mxCell id="fqKE6zB5EEerR9ECs1fo-94" value="paymentType (str, fixed values)" style="text;strokeColor=default;fillColor=none;spacingLeft=4;spacingRight=4;overflow=hidden;rotatable=0;points=[[0,0.5],[1,0.5]];portConstraint=eastwest;fontSize=12;whiteSpace=wrap;html=1;" vertex="1" parent="fqKE6zB5EEerR9ECs1fo-14">
          <mxGeometry y="146" width="240" height="30" as="geometry" />
        </mxCell>
        <mxCell id="fqKE6zB5EEerR9ECs1fo-97" value="companyName (str)" style="text;strokeColor=default;fillColor=none;spacingLeft=4;spacingRight=4;overflow=hidden;rotatable=0;points=[[0,0.5],[1,0.5]];portConstraint=eastwest;fontSize=12;whiteSpace=wrap;html=1;" vertex="1" parent="fqKE6zB5EEerR9ECs1fo-14">
          <mxGeometry y="176" width="240" height="30" as="geometry" />
        </mxCell>
        <mxCell id="fqKE6zB5EEerR9ECs1fo-98" value="section (str)" style="text;strokeColor=default;fillColor=none;spacingLeft=4;spacingRight=4;overflow=hidden;rotatable=0;points=[[0,0.5],[1,0.5]];portConstraint=eastwest;fontSize=12;whiteSpace=wrap;html=1;" vertex="1" parent="fqKE6zB5EEerR9ECs1fo-14">
          <mxGeometry y="206" width="240" height="30" as="geometry" />
        </mxCell>
        <mxCell id="fqKE6zB5EEerR9ECs1fo-93" value="transactionDate (date)" style="text;strokeColor=default;fillColor=none;spacingLeft=4;spacingRight=4;overflow=hidden;rotatable=0;points=[[0,0.5],[1,0.5]];portConstraint=eastwest;fontSize=12;whiteSpace=wrap;html=1;" vertex="1" parent="fqKE6zB5EEerR9ECs1fo-14">
          <mxGeometry y="236" width="240" height="30" as="geometry" />
        </mxCell>
        <mxCell id="fqKE6zB5EEerR9ECs1fo-17" value="createdAt (date)&amp;nbsp;" style="text;strokeColor=default;fillColor=none;spacingLeft=4;spacingRight=4;overflow=hidden;rotatable=0;points=[[0,0.5],[1,0.5]];portConstraint=eastwest;fontSize=12;whiteSpace=wrap;html=1;" vertex="1" parent="fqKE6zB5EEerR9ECs1fo-14">
          <mxGeometry y="266" width="240" height="30" as="geometry" />
        </mxCell>
        <mxCell id="fqKE6zB5EEerR9ECs1fo-18" value="updatedAt (date)" style="text;strokeColor=default;fillColor=none;spacingLeft=4;spacingRight=4;overflow=hidden;rotatable=0;points=[[0,0.5],[1,0.5]];portConstraint=eastwest;fontSize=12;whiteSpace=wrap;html=1;" vertex="1" parent="fqKE6zB5EEerR9ECs1fo-14">
          <mxGeometry y="296" width="240" height="30" as="geometry" />
        </mxCell>
        <mxCell id="fqKE6zB5EEerR9ECs1fo-22" value="returns (Main Document)" style="swimlane;fontStyle=0;childLayout=stackLayout;horizontal=1;startSize=26;horizontalStack=0;resizeParent=1;resizeParentMax=0;resizeLast=0;collapsible=1;marginBottom=0;align=center;fontSize=14;" vertex="1" parent="1">
          <mxGeometry x="47" y="-2688" width="270" height="266" as="geometry" />
        </mxCell>
        <mxCell id="fqKE6zB5EEerR9ECs1fo-23" value="_id (objID_Main, unique)" style="text;strokeColor=default;fillColor=none;spacingLeft=4;spacingRight=4;overflow=hidden;rotatable=0;points=[[0,0.5],[1,0.5]];portConstraint=eastwest;fontSize=12;whiteSpace=wrap;html=1;" vertex="1" parent="fqKE6zB5EEerR9ECs1fo-22">
          <mxGeometry y="26" width="270" height="30" as="geometry" />
        </mxCell>
        <mxCell id="fqKE6zB5EEerR9ECs1fo-24" value="purchaseRecordId (objid_ref)" style="text;strokeColor=default;fillColor=none;spacingLeft=4;spacingRight=4;overflow=hidden;rotatable=0;points=[[0,0.5],[1,0.5]];portConstraint=eastwest;fontSize=12;whiteSpace=wrap;html=1;" vertex="1" parent="fqKE6zB5EEerR9ECs1fo-22">
          <mxGeometry y="56" width="270" height="30" as="geometry" />
        </mxCell>
        <mxCell id="fqKE6zB5EEerR9ECs1fo-25" value="retrievedAmount&amp;nbsp;(int)" style="text;strokeColor=default;fillColor=none;spacingLeft=4;spacingRight=4;overflow=hidden;rotatable=0;points=[[0,0.5],[1,0.5]];portConstraint=eastwest;fontSize=12;whiteSpace=wrap;html=1;" vertex="1" parent="fqKE6zB5EEerR9ECs1fo-22">
          <mxGeometry y="86" width="270" height="30" as="geometry" />
        </mxCell>
        <mxCell id="fqKE6zB5EEerR9ECs1fo-26" value="returnDate (date)" style="text;strokeColor=default;fillColor=none;spacingLeft=4;spacingRight=4;overflow=hidden;rotatable=0;points=[[0,0.5],[1,0.5]];portConstraint=eastwest;fontSize=12;whiteSpace=wrap;html=1;" vertex="1" parent="fqKE6zB5EEerR9ECs1fo-22">
          <mxGeometry y="116" width="270" height="30" as="geometry" />
        </mxCell>
        <mxCell id="fqKE6zB5EEerR9ECs1fo-27" value="reason (str)" style="text;strokeColor=default;fillColor=none;spacingLeft=4;spacingRight=4;overflow=hidden;rotatable=0;points=[[0,0.5],[1,0.5]];portConstraint=eastwest;fontSize=12;whiteSpace=wrap;html=1;" vertex="1" parent="fqKE6zB5EEerR9ECs1fo-22">
          <mxGeometry y="146" width="270" height="30" as="geometry" />
        </mxCell>
        <mxCell id="fqKE6zB5EEerR9ECs1fo-28" value="additionalNotes (str)" style="text;strokeColor=default;fillColor=none;spacingLeft=4;spacingRight=4;overflow=hidden;rotatable=0;points=[[0,0.5],[1,0.5]];portConstraint=eastwest;fontSize=12;whiteSpace=wrap;html=1;" vertex="1" parent="fqKE6zB5EEerR9ECs1fo-22">
          <mxGeometry y="176" width="270" height="30" as="geometry" />
        </mxCell>
        <mxCell id="fqKE6zB5EEerR9ECs1fo-30" value="createdAt (date)&amp;nbsp;" style="text;strokeColor=default;fillColor=none;spacingLeft=4;spacingRight=4;overflow=hidden;rotatable=0;points=[[0,0.5],[1,0.5]];portConstraint=eastwest;fontSize=12;whiteSpace=wrap;html=1;" vertex="1" parent="fqKE6zB5EEerR9ECs1fo-22">
          <mxGeometry y="206" width="270" height="30" as="geometry" />
        </mxCell>
        <mxCell id="fqKE6zB5EEerR9ECs1fo-31" value="updatedAt (date)" style="text;strokeColor=default;fillColor=none;spacingLeft=4;spacingRight=4;overflow=hidden;rotatable=0;points=[[0,0.5],[1,0.5]];portConstraint=eastwest;fontSize=12;whiteSpace=wrap;html=1;" vertex="1" parent="fqKE6zB5EEerR9ECs1fo-22">
          <mxGeometry y="236" width="270" height="30" as="geometry" />
        </mxCell>
        <mxCell id="fqKE6zB5EEerR9ECs1fo-33" value="otherSpendings (Main Document)" style="swimlane;fontStyle=0;childLayout=stackLayout;horizontal=1;startSize=26;horizontalStack=0;resizeParent=1;resizeParentMax=0;resizeLast=0;collapsible=1;marginBottom=0;align=center;fontSize=14;" vertex="1" parent="1">
          <mxGeometry x="716" y="-2104" width="270" height="296" as="geometry" />
        </mxCell>
        <mxCell id="fqKE6zB5EEerR9ECs1fo-34" value="_id (objID_Main, unique)" style="text;strokeColor=default;fillColor=none;spacingLeft=4;spacingRight=4;overflow=hidden;rotatable=0;points=[[0,0.5],[1,0.5]];portConstraint=eastwest;fontSize=12;whiteSpace=wrap;html=1;" vertex="1" parent="fqKE6zB5EEerR9ECs1fo-33">
          <mxGeometry y="26" width="270" height="30" as="geometry" />
        </mxCell>
        <mxCell id="fqKE6zB5EEerR9ECs1fo-35" value="title (str)" style="text;strokeColor=default;fillColor=none;spacingLeft=4;spacingRight=4;overflow=hidden;rotatable=0;points=[[0,0.5],[1,0.5]];portConstraint=eastwest;fontSize=12;whiteSpace=wrap;html=1;" vertex="1" parent="fqKE6zB5EEerR9ECs1fo-33">
          <mxGeometry y="56" width="270" height="30" as="geometry" />
        </mxCell>
        <mxCell id="fqKE6zB5EEerR9ECs1fo-36" value="paymentType (str, fixed)" style="text;strokeColor=default;fillColor=none;spacingLeft=4;spacingRight=4;overflow=hidden;rotatable=0;points=[[0,0.5],[1,0.5]];portConstraint=eastwest;fontSize=12;whiteSpace=wrap;html=1;" vertex="1" parent="fqKE6zB5EEerR9ECs1fo-33">
          <mxGeometry y="86" width="270" height="30" as="geometry" />
        </mxCell>
        <mxCell id="fqKE6zB5EEerR9ECs1fo-37" value="totalPayment (int)" style="text;strokeColor=default;fillColor=none;spacingLeft=4;spacingRight=4;overflow=hidden;rotatable=0;points=[[0,0.5],[1,0.5]];portConstraint=eastwest;fontSize=12;whiteSpace=wrap;html=1;" vertex="1" parent="fqKE6zB5EEerR9ECs1fo-33">
          <mxGeometry y="116" width="270" height="30" as="geometry" />
        </mxCell>
        <mxCell id="fqKE6zB5EEerR9ECs1fo-38" value="debt (int)" style="text;strokeColor=default;fillColor=none;spacingLeft=4;spacingRight=4;overflow=hidden;rotatable=0;points=[[0,0.5],[1,0.5]];portConstraint=eastwest;fontSize=12;whiteSpace=wrap;html=1;" vertex="1" parent="fqKE6zB5EEerR9ECs1fo-33">
          <mxGeometry y="146" width="270" height="30" as="geometry" />
        </mxCell>
        <mxCell id="fqKE6zB5EEerR9ECs1fo-42" value="spendingDate (date)" style="text;strokeColor=default;fillColor=none;spacingLeft=4;spacingRight=4;overflow=hidden;rotatable=0;points=[[0,0.5],[1,0.5]];portConstraint=eastwest;fontSize=12;whiteSpace=wrap;html=1;" vertex="1" parent="fqKE6zB5EEerR9ECs1fo-33">
          <mxGeometry y="176" width="270" height="30" as="geometry" />
        </mxCell>
        <mxCell id="fqKE6zB5EEerR9ECs1fo-127" style="edgeStyle=orthogonalEdgeStyle;rounded=0;orthogonalLoop=1;jettySize=auto;html=1;exitX=0;exitY=0.5;exitDx=0;exitDy=0;shape=link;" edge="1" parent="fqKE6zB5EEerR9ECs1fo-33" source="fqKE6zB5EEerR9ECs1fo-39">
          <mxGeometry relative="1" as="geometry">
            <mxPoint x="-56" y="16" as="targetPoint" />
          </mxGeometry>
        </mxCell>
        <mxCell id="fqKE6zB5EEerR9ECs1fo-39" value="transactions (objIds Array)" style="text;strokeColor=default;fillColor=none;spacingLeft=4;spacingRight=4;overflow=hidden;rotatable=0;points=[[0,0.5],[1,0.5]];portConstraint=eastwest;fontSize=12;whiteSpace=wrap;html=1;" vertex="1" parent="fqKE6zB5EEerR9ECs1fo-33">
          <mxGeometry y="206" width="270" height="30" as="geometry" />
        </mxCell>
        <mxCell id="fqKE6zB5EEerR9ECs1fo-40" value="createdAt (date)&amp;nbsp;" style="text;strokeColor=default;fillColor=none;spacingLeft=4;spacingRight=4;overflow=hidden;rotatable=0;points=[[0,0.5],[1,0.5]];portConstraint=eastwest;fontSize=12;whiteSpace=wrap;html=1;" vertex="1" parent="fqKE6zB5EEerR9ECs1fo-33">
          <mxGeometry y="236" width="270" height="30" as="geometry" />
        </mxCell>
        <mxCell id="fqKE6zB5EEerR9ECs1fo-41" value="updatedAt (date)" style="text;strokeColor=default;fillColor=none;spacingLeft=4;spacingRight=4;overflow=hidden;rotatable=0;points=[[0,0.5],[1,0.5]];portConstraint=eastwest;fontSize=12;whiteSpace=wrap;html=1;" vertex="1" parent="fqKE6zB5EEerR9ECs1fo-33">
          <mxGeometry y="266" width="270" height="30" as="geometry" />
        </mxCell>
        <mxCell id="fqKE6zB5EEerR9ECs1fo-43" value="employees (Main Document)" style="swimlane;fontStyle=0;childLayout=stackLayout;horizontal=1;startSize=26;horizontalStack=0;resizeParent=1;resizeParentMax=0;resizeLast=0;collapsible=1;marginBottom=0;align=center;fontSize=14;" vertex="1" parent="1">
          <mxGeometry x="1059" y="-2410" width="270" height="296" as="geometry" />
        </mxCell>
        <mxCell id="fqKE6zB5EEerR9ECs1fo-44" value="_id (objID_Main, unique)" style="text;strokeColor=default;fillColor=none;spacingLeft=4;spacingRight=4;overflow=hidden;rotatable=0;points=[[0,0.5],[1,0.5]];portConstraint=eastwest;fontSize=12;whiteSpace=wrap;html=1;" vertex="1" parent="fqKE6zB5EEerR9ECs1fo-43">
          <mxGeometry y="26" width="270" height="30" as="geometry" />
        </mxCell>
        <mxCell id="fqKE6zB5EEerR9ECs1fo-45" value="name (str)" style="text;strokeColor=default;fillColor=none;spacingLeft=4;spacingRight=4;overflow=hidden;rotatable=0;points=[[0,0.5],[1,0.5]];portConstraint=eastwest;fontSize=12;whiteSpace=wrap;html=1;" vertex="1" parent="fqKE6zB5EEerR9ECs1fo-43">
          <mxGeometry y="56" width="270" height="30" as="geometry" />
        </mxCell>
        <mxCell id="fqKE6zB5EEerR9ECs1fo-47" value="phoneNumber (str)" style="text;strokeColor=default;fillColor=none;spacingLeft=4;spacingRight=4;overflow=hidden;rotatable=0;points=[[0,0.5],[1,0.5]];portConstraint=eastwest;fontSize=12;whiteSpace=wrap;html=1;" vertex="1" parent="fqKE6zB5EEerR9ECs1fo-43">
          <mxGeometry y="86" width="270" height="30" as="geometry" />
        </mxCell>
        <mxCell id="fqKE6zB5EEerR9ECs1fo-48" value="salary (int)" style="text;strokeColor=default;fillColor=none;spacingLeft=4;spacingRight=4;overflow=hidden;rotatable=0;points=[[0,0.5],[1,0.5]];portConstraint=eastwest;fontSize=12;whiteSpace=wrap;html=1;" vertex="1" parent="fqKE6zB5EEerR9ECs1fo-43">
          <mxGeometry y="116" width="270" height="30" as="geometry" />
        </mxCell>
        <mxCell id="fqKE6zB5EEerR9ECs1fo-49" value="paymentPeriod (str, fixed)" style="text;strokeColor=default;fillColor=none;spacingLeft=4;spacingRight=4;overflow=hidden;rotatable=0;points=[[0,0.5],[1,0.5]];portConstraint=eastwest;fontSize=12;whiteSpace=wrap;html=1;" vertex="1" parent="fqKE6zB5EEerR9ECs1fo-43">
          <mxGeometry y="146" width="270" height="30" as="geometry" />
        </mxCell>
        <mxCell id="fqKE6zB5EEerR9ECs1fo-124" style="edgeStyle=orthogonalEdgeStyle;rounded=0;orthogonalLoop=1;jettySize=auto;html=1;exitX=0;exitY=0.5;exitDx=0;exitDy=0;shape=link;" edge="1" parent="fqKE6zB5EEerR9ECs1fo-43" source="fqKE6zB5EEerR9ECs1fo-50">
          <mxGeometry relative="1" as="geometry">
            <mxPoint x="-36" y="-26" as="targetPoint" />
          </mxGeometry>
        </mxCell>
        <mxCell id="fqKE6zB5EEerR9ECs1fo-50" value="transactions (objIds Array)" style="text;strokeColor=default;fillColor=none;spacingLeft=4;spacingRight=4;overflow=hidden;rotatable=0;points=[[0,0.5],[1,0.5]];portConstraint=eastwest;fontSize=12;whiteSpace=wrap;html=1;" vertex="1" parent="fqKE6zB5EEerR9ECs1fo-43">
          <mxGeometry y="176" width="270" height="30" as="geometry" />
        </mxCell>
        <mxCell id="fqKE6zB5EEerR9ECs1fo-51" value="createdAt (date)&amp;nbsp;" style="text;strokeColor=default;fillColor=none;spacingLeft=4;spacingRight=4;overflow=hidden;rotatable=0;points=[[0,0.5],[1,0.5]];portConstraint=eastwest;fontSize=12;whiteSpace=wrap;html=1;" vertex="1" parent="fqKE6zB5EEerR9ECs1fo-43">
          <mxGeometry y="206" width="270" height="30" as="geometry" />
        </mxCell>
        <mxCell id="fqKE6zB5EEerR9ECs1fo-52" value="updatedAt (date)" style="text;strokeColor=default;fillColor=none;spacingLeft=4;spacingRight=4;overflow=hidden;rotatable=0;points=[[0,0.5],[1,0.5]];portConstraint=eastwest;fontSize=12;whiteSpace=wrap;html=1;" vertex="1" parent="fqKE6zB5EEerR9ECs1fo-43">
          <mxGeometry y="236" width="270" height="30" as="geometry" />
        </mxCell>
        <mxCell id="fqKE6zB5EEerR9ECs1fo-46" value="sex (str, fixed values)" style="text;strokeColor=default;fillColor=none;spacingLeft=4;spacingRight=4;overflow=hidden;rotatable=0;points=[[0,0.5],[1,0.5]];portConstraint=eastwest;fontSize=12;whiteSpace=wrap;html=1;" vertex="1" parent="fqKE6zB5EEerR9ECs1fo-43">
          <mxGeometry y="266" width="270" height="30" as="geometry" />
        </mxCell>
        <mxCell id="fqKE6zB5EEerR9ECs1fo-53" value="Sex Possible Value" style="swimlane;fontStyle=0;childLayout=stackLayout;horizontal=1;startSize=26;horizontalStack=0;resizeParent=1;resizeParentMax=0;resizeLast=0;collapsible=1;marginBottom=0;align=center;fontSize=14;fillColor=#e3c800;strokeColor=#B09500;fontColor=#000000;" vertex="1" parent="1">
          <mxGeometry x="1079" y="-2074" width="230" height="86" as="geometry" />
        </mxCell>
        <mxCell id="fqKE6zB5EEerR9ECs1fo-54" value="male" style="text;strokeColor=default;fillColor=none;spacingLeft=4;spacingRight=4;overflow=hidden;rotatable=0;points=[[0,0.5],[1,0.5]];portConstraint=eastwest;fontSize=12;whiteSpace=wrap;html=1;" vertex="1" parent="fqKE6zB5EEerR9ECs1fo-53">
          <mxGeometry y="26" width="230" height="30" as="geometry" />
        </mxCell>
        <mxCell id="fqKE6zB5EEerR9ECs1fo-55" value="female" style="text;strokeColor=default;fillColor=none;spacingLeft=4;spacingRight=4;overflow=hidden;rotatable=0;points=[[0,0.5],[1,0.5]];portConstraint=eastwest;fontSize=12;whiteSpace=wrap;html=1;" vertex="1" parent="fqKE6zB5EEerR9ECs1fo-53">
          <mxGeometry y="56" width="230" height="30" as="geometry" />
        </mxCell>
        <mxCell id="fqKE6zB5EEerR9ECs1fo-56" value="paymentType Possible values" style="swimlane;fontStyle=0;childLayout=stackLayout;horizontal=1;startSize=26;horizontalStack=0;resizeParent=1;resizeParentMax=0;resizeLast=0;collapsible=1;marginBottom=0;align=center;fontSize=14;fillColor=#e3c800;strokeColor=#B09500;fontColor=#000000;" vertex="1" parent="1">
          <mxGeometry x="731" y="-2208" width="240" height="86" as="geometry" />
        </mxCell>
        <mxCell id="fqKE6zB5EEerR9ECs1fo-57" value="direct" style="text;strokeColor=default;fillColor=none;spacingLeft=4;spacingRight=4;overflow=hidden;rotatable=0;points=[[0,0.5],[1,0.5]];portConstraint=eastwest;fontSize=12;whiteSpace=wrap;html=1;" vertex="1" parent="fqKE6zB5EEerR9ECs1fo-56">
          <mxGeometry y="26" width="240" height="30" as="geometry" />
        </mxCell>
        <mxCell id="fqKE6zB5EEerR9ECs1fo-58" value="indirect" style="text;strokeColor=default;fillColor=none;spacingLeft=4;spacingRight=4;overflow=hidden;rotatable=0;points=[[0,0.5],[1,0.5]];portConstraint=eastwest;fontSize=12;whiteSpace=wrap;html=1;" vertex="1" parent="fqKE6zB5EEerR9ECs1fo-56">
          <mxGeometry y="56" width="240" height="30" as="geometry" />
        </mxCell>
        <mxCell id="fqKE6zB5EEerR9ECs1fo-60" value="PaymentPeriod Possible Value" style="swimlane;fontStyle=0;childLayout=stackLayout;horizontal=1;startSize=26;horizontalStack=0;resizeParent=1;resizeParentMax=0;resizeLast=0;collapsible=1;marginBottom=0;align=center;fontSize=14;fillColor=#e3c800;strokeColor=#B09500;fontColor=#000000;" vertex="1" parent="1">
          <mxGeometry x="1343" y="-2104" width="230" height="146" as="geometry" />
        </mxCell>
        <mxCell id="fqKE6zB5EEerR9ECs1fo-61" value="daily" style="text;strokeColor=default;fillColor=none;spacingLeft=4;spacingRight=4;overflow=hidden;rotatable=0;points=[[0,0.5],[1,0.5]];portConstraint=eastwest;fontSize=12;whiteSpace=wrap;html=1;" vertex="1" parent="fqKE6zB5EEerR9ECs1fo-60">
          <mxGeometry y="26" width="230" height="30" as="geometry" />
        </mxCell>
        <mxCell id="fqKE6zB5EEerR9ECs1fo-62" value="weekly" style="text;strokeColor=default;fillColor=none;spacingLeft=4;spacingRight=4;overflow=hidden;rotatable=0;points=[[0,0.5],[1,0.5]];portConstraint=eastwest;fontSize=12;whiteSpace=wrap;html=1;" vertex="1" parent="fqKE6zB5EEerR9ECs1fo-60">
          <mxGeometry y="56" width="230" height="30" as="geometry" />
        </mxCell>
        <mxCell id="fqKE6zB5EEerR9ECs1fo-76" value="monthly" style="text;strokeColor=default;fillColor=none;spacingLeft=4;spacingRight=4;overflow=hidden;rotatable=0;points=[[0,0.5],[1,0.5]];portConstraint=eastwest;fontSize=12;whiteSpace=wrap;html=1;" vertex="1" parent="fqKE6zB5EEerR9ECs1fo-60">
          <mxGeometry y="86" width="230" height="30" as="geometry" />
        </mxCell>
        <mxCell id="fqKE6zB5EEerR9ECs1fo-64" value="yearly" style="text;strokeColor=default;fillColor=none;spacingLeft=4;spacingRight=4;overflow=hidden;rotatable=0;points=[[0,0.5],[1,0.5]];portConstraint=eastwest;fontSize=12;whiteSpace=wrap;html=1;" vertex="1" parent="fqKE6zB5EEerR9ECs1fo-60">
          <mxGeometry y="116" width="230" height="30" as="geometry" />
        </mxCell>
        <mxCell id="fqKE6zB5EEerR9ECs1fo-65" value="subscriptions (Main Document)" style="swimlane;fontStyle=0;childLayout=stackLayout;horizontal=1;startSize=26;horizontalStack=0;resizeParent=1;resizeParentMax=0;resizeLast=0;collapsible=1;marginBottom=0;align=center;fontSize=14;" vertex="1" parent="1">
          <mxGeometry x="1059" y="-2688" width="270" height="266" as="geometry" />
        </mxCell>
        <mxCell id="fqKE6zB5EEerR9ECs1fo-66" value="_id (objID_Main, unique)" style="text;strokeColor=default;fillColor=none;spacingLeft=4;spacingRight=4;overflow=hidden;rotatable=0;points=[[0,0.5],[1,0.5]];portConstraint=eastwest;fontSize=12;whiteSpace=wrap;html=1;" vertex="1" parent="fqKE6zB5EEerR9ECs1fo-65">
          <mxGeometry y="26" width="270" height="30" as="geometry" />
        </mxCell>
        <mxCell id="fqKE6zB5EEerR9ECs1fo-67" value="title (str)" style="text;strokeColor=default;fillColor=none;spacingLeft=4;spacingRight=4;overflow=hidden;rotatable=0;points=[[0,0.5],[1,0.5]];portConstraint=eastwest;fontSize=12;whiteSpace=wrap;html=1;" vertex="1" parent="fqKE6zB5EEerR9ECs1fo-65">
          <mxGeometry y="56" width="270" height="30" as="geometry" />
        </mxCell>
        <mxCell id="fqKE6zB5EEerR9ECs1fo-68" value="paymentPeriod (str, fixed)" style="text;strokeColor=default;fillColor=none;spacingLeft=4;spacingRight=4;overflow=hidden;rotatable=0;points=[[0,0.5],[1,0.5]];portConstraint=eastwest;fontSize=12;whiteSpace=wrap;html=1;" vertex="1" parent="fqKE6zB5EEerR9ECs1fo-65">
          <mxGeometry y="86" width="270" height="30" as="geometry" />
        </mxCell>
        <mxCell id="fqKE6zB5EEerR9ECs1fo-69" value="amount (int)" style="text;strokeColor=default;fillColor=none;spacingLeft=4;spacingRight=4;overflow=hidden;rotatable=0;points=[[0,0.5],[1,0.5]];portConstraint=eastwest;fontSize=12;whiteSpace=wrap;html=1;" vertex="1" parent="fqKE6zB5EEerR9ECs1fo-65">
          <mxGeometry y="116" width="270" height="30" as="geometry" />
        </mxCell>
        <mxCell id="fqKE6zB5EEerR9ECs1fo-70" value="description (notes)" style="text;strokeColor=default;fillColor=none;spacingLeft=4;spacingRight=4;overflow=hidden;rotatable=0;points=[[0,0.5],[1,0.5]];portConstraint=eastwest;fontSize=12;whiteSpace=wrap;html=1;" vertex="1" parent="fqKE6zB5EEerR9ECs1fo-65">
          <mxGeometry y="146" width="270" height="30" as="geometry" />
        </mxCell>
        <mxCell id="fqKE6zB5EEerR9ECs1fo-73" value="createdAt (date)&amp;nbsp;" style="text;strokeColor=default;fillColor=none;spacingLeft=4;spacingRight=4;overflow=hidden;rotatable=0;points=[[0,0.5],[1,0.5]];portConstraint=eastwest;fontSize=12;whiteSpace=wrap;html=1;" vertex="1" parent="fqKE6zB5EEerR9ECs1fo-65">
          <mxGeometry y="176" width="270" height="30" as="geometry" />
        </mxCell>
        <mxCell id="fqKE6zB5EEerR9ECs1fo-74" value="updatedAt (date)" style="text;strokeColor=default;fillColor=none;spacingLeft=4;spacingRight=4;overflow=hidden;rotatable=0;points=[[0,0.5],[1,0.5]];portConstraint=eastwest;fontSize=12;whiteSpace=wrap;html=1;" vertex="1" parent="fqKE6zB5EEerR9ECs1fo-65">
          <mxGeometry y="206" width="270" height="30" as="geometry" />
        </mxCell>
        <mxCell id="fqKE6zB5EEerR9ECs1fo-118" value="transactions (objIds Array)" style="text;strokeColor=default;fillColor=none;spacingLeft=4;spacingRight=4;overflow=hidden;rotatable=0;points=[[0,0.5],[1,0.5]];portConstraint=eastwest;fontSize=12;whiteSpace=wrap;html=1;" vertex="1" parent="fqKE6zB5EEerR9ECs1fo-65">
          <mxGeometry y="236" width="270" height="30" as="geometry" />
        </mxCell>
        <mxCell id="fqKE6zB5EEerR9ECs1fo-77" value="budgets (Main Document)" style="swimlane;fontStyle=0;childLayout=stackLayout;horizontal=1;startSize=26;horizontalStack=0;resizeParent=1;resizeParentMax=0;resizeLast=0;collapsible=1;marginBottom=0;align=center;fontSize=14;" vertex="1" parent="1">
          <mxGeometry x="47" y="-2179" width="270" height="296" as="geometry" />
        </mxCell>
        <mxCell id="fqKE6zB5EEerR9ECs1fo-78" value="_id (objID_Main, unique)" style="text;strokeColor=default;fillColor=none;spacingLeft=4;spacingRight=4;overflow=hidden;rotatable=0;points=[[0,0.5],[1,0.5]];portConstraint=eastwest;fontSize=12;whiteSpace=wrap;html=1;" vertex="1" parent="fqKE6zB5EEerR9ECs1fo-77">
          <mxGeometry y="26" width="270" height="30" as="geometry" />
        </mxCell>
        <mxCell id="fqKE6zB5EEerR9ECs1fo-79" value="budgetDate (date)" style="text;strokeColor=default;fillColor=none;spacingLeft=4;spacingRight=4;overflow=hidden;rotatable=0;points=[[0,0.5],[1,0.5]];portConstraint=eastwest;fontSize=12;whiteSpace=wrap;html=1;" vertex="1" parent="fqKE6zB5EEerR9ECs1fo-77">
          <mxGeometry y="56" width="270" height="30" as="geometry" />
        </mxCell>
        <mxCell id="fqKE6zB5EEerR9ECs1fo-80" value="currentAmount (int)" style="text;strokeColor=default;fillColor=none;spacingLeft=4;spacingRight=4;overflow=hidden;rotatable=0;points=[[0,0.5],[1,0.5]];portConstraint=eastwest;fontSize=12;whiteSpace=wrap;html=1;" vertex="1" parent="fqKE6zB5EEerR9ECs1fo-77">
          <mxGeometry y="86" width="270" height="30" as="geometry" />
        </mxCell>
        <mxCell id="fqKE6zB5EEerR9ECs1fo-81" value="totalIncome (int)" style="text;strokeColor=default;fillColor=none;spacingLeft=4;spacingRight=4;overflow=hidden;rotatable=0;points=[[0,0.5],[1,0.5]];portConstraint=eastwest;fontSize=12;whiteSpace=wrap;html=1;" vertex="1" parent="fqKE6zB5EEerR9ECs1fo-77">
          <mxGeometry y="116" width="270" height="30" as="geometry" />
        </mxCell>
        <mxCell id="fqKE6zB5EEerR9ECs1fo-82" value="totalExpence (int)" style="text;strokeColor=default;fillColor=none;spacingLeft=4;spacingRight=4;overflow=hidden;rotatable=0;points=[[0,0.5],[1,0.5]];portConstraint=eastwest;fontSize=12;whiteSpace=wrap;html=1;" vertex="1" parent="fqKE6zB5EEerR9ECs1fo-77">
          <mxGeometry y="146" width="270" height="30" as="geometry" />
        </mxCell>
        <mxCell id="fqKE6zB5EEerR9ECs1fo-83" value="highestReachedAmount (int)" style="text;strokeColor=default;fillColor=none;spacingLeft=4;spacingRight=4;overflow=hidden;rotatable=0;points=[[0,0.5],[1,0.5]];portConstraint=eastwest;fontSize=12;whiteSpace=wrap;html=1;" vertex="1" parent="fqKE6zB5EEerR9ECs1fo-77">
          <mxGeometry y="176" width="270" height="30" as="geometry" />
        </mxCell>
        <mxCell id="fqKE6zB5EEerR9ECs1fo-99" value="lowestReachedAmount (int)" style="text;strokeColor=default;fillColor=none;spacingLeft=4;spacingRight=4;overflow=hidden;rotatable=0;points=[[0,0.5],[1,0.5]];portConstraint=eastwest;fontSize=12;whiteSpace=wrap;html=1;" vertex="1" parent="fqKE6zB5EEerR9ECs1fo-77">
          <mxGeometry y="206" width="270" height="30" as="geometry" />
        </mxCell>
        <mxCell id="fqKE6zB5EEerR9ECs1fo-84" value="createdAt (date)&amp;nbsp;" style="text;strokeColor=default;fillColor=none;spacingLeft=4;spacingRight=4;overflow=hidden;rotatable=0;points=[[0,0.5],[1,0.5]];portConstraint=eastwest;fontSize=12;whiteSpace=wrap;html=1;" vertex="1" parent="fqKE6zB5EEerR9ECs1fo-77">
          <mxGeometry y="236" width="270" height="30" as="geometry" />
        </mxCell>
        <mxCell id="fqKE6zB5EEerR9ECs1fo-85" value="updatedAt (date)" style="text;strokeColor=default;fillColor=none;spacingLeft=4;spacingRight=4;overflow=hidden;rotatable=0;points=[[0,0.5],[1,0.5]];portConstraint=eastwest;fontSize=12;whiteSpace=wrap;html=1;" vertex="1" parent="fqKE6zB5EEerR9ECs1fo-77">
          <mxGeometry y="266" width="270" height="30" as="geometry" />
        </mxCell>
        <mxCell id="fqKE6zB5EEerR9ECs1fo-90" value="transaction type Possible values" style="swimlane;fontStyle=0;childLayout=stackLayout;horizontal=1;startSize=26;horizontalStack=0;resizeParent=1;resizeParentMax=0;resizeLast=0;collapsible=1;marginBottom=0;align=center;fontSize=14;fillColor=#e3c800;strokeColor=#B09500;fontColor=#000000;" vertex="1" parent="1">
          <mxGeometry x="731" y="-2336" width="240" height="86" as="geometry" />
        </mxCell>
        <mxCell id="fqKE6zB5EEerR9ECs1fo-91" value="income" style="text;strokeColor=default;fillColor=none;spacingLeft=4;spacingRight=4;overflow=hidden;rotatable=0;points=[[0,0.5],[1,0.5]];portConstraint=eastwest;fontSize=12;whiteSpace=wrap;html=1;" vertex="1" parent="fqKE6zB5EEerR9ECs1fo-90">
          <mxGeometry y="26" width="240" height="30" as="geometry" />
        </mxCell>
        <mxCell id="fqKE6zB5EEerR9ECs1fo-92" value="expence" style="text;strokeColor=default;fillColor=none;spacingLeft=4;spacingRight=4;overflow=hidden;rotatable=0;points=[[0,0.5],[1,0.5]];portConstraint=eastwest;fontSize=12;whiteSpace=wrap;html=1;" vertex="1" parent="fqKE6zB5EEerR9ECs1fo-90">
          <mxGeometry y="56" width="240" height="30" as="geometry" />
        </mxCell>
        <mxCell id="fqKE6zB5EEerR9ECs1fo-100" value="companies (Main Document)" style="swimlane;fontStyle=0;childLayout=stackLayout;horizontal=1;startSize=26;horizontalStack=0;resizeParent=1;resizeParentMax=0;resizeLast=0;collapsible=1;marginBottom=0;align=center;fontSize=14;" vertex="1" parent="1">
          <mxGeometry x="367" y="-2688" width="270" height="266" as="geometry" />
        </mxCell>
        <mxCell id="fqKE6zB5EEerR9ECs1fo-101" value="_id (objID_Main, unique)" style="text;strokeColor=default;fillColor=none;spacingLeft=4;spacingRight=4;overflow=hidden;rotatable=0;points=[[0,0.5],[1,0.5]];portConstraint=eastwest;fontSize=12;whiteSpace=wrap;html=1;" vertex="1" parent="fqKE6zB5EEerR9ECs1fo-100">
          <mxGeometry y="26" width="270" height="30" as="geometry" />
        </mxCell>
        <mxCell id="fqKE6zB5EEerR9ECs1fo-102" value="name (str)" style="text;strokeColor=default;fillColor=none;spacingLeft=4;spacingRight=4;overflow=hidden;rotatable=0;points=[[0,0.5],[1,0.5]];portConstraint=eastwest;fontSize=12;whiteSpace=wrap;html=1;" vertex="1" parent="fqKE6zB5EEerR9ECs1fo-100">
          <mxGeometry y="56" width="270" height="30" as="geometry" />
        </mxCell>
        <mxCell id="fqKE6zB5EEerR9ECs1fo-103" value="totalPaidTo (int)" style="text;strokeColor=default;fillColor=none;spacingLeft=4;spacingRight=4;overflow=hidden;rotatable=0;points=[[0,0.5],[1,0.5]];portConstraint=eastwest;fontSize=12;whiteSpace=wrap;html=1;" vertex="1" parent="fqKE6zB5EEerR9ECs1fo-100">
          <mxGeometry y="86" width="270" height="30" as="geometry" />
        </mxCell>
        <mxCell id="fqKE6zB5EEerR9ECs1fo-104" value="totalDebt (int)" style="text;strokeColor=default;fillColor=none;spacingLeft=4;spacingRight=4;overflow=hidden;rotatable=0;points=[[0,0.5],[1,0.5]];portConstraint=eastwest;fontSize=12;whiteSpace=wrap;html=1;" vertex="1" parent="fqKE6zB5EEerR9ECs1fo-100">
          <mxGeometry y="116" width="270" height="30" as="geometry" />
        </mxCell>
        <mxCell id="fqKE6zB5EEerR9ECs1fo-105" value="lastPaymentDate (date)" style="text;strokeColor=default;fillColor=none;spacingLeft=4;spacingRight=4;overflow=hidden;rotatable=0;points=[[0,0.5],[1,0.5]];portConstraint=eastwest;fontSize=12;whiteSpace=wrap;html=1;" vertex="1" parent="fqKE6zB5EEerR9ECs1fo-100">
          <mxGeometry y="146" width="270" height="30" as="geometry" />
        </mxCell>
        <mxCell id="fqKE6zB5EEerR9ECs1fo-106" value="purchaseRecords (array, objIds)" style="text;strokeColor=default;fillColor=none;spacingLeft=4;spacingRight=4;overflow=hidden;rotatable=0;points=[[0,0.5],[1,0.5]];portConstraint=eastwest;fontSize=12;whiteSpace=wrap;html=1;" vertex="1" parent="fqKE6zB5EEerR9ECs1fo-100">
          <mxGeometry y="176" width="270" height="30" as="geometry" />
        </mxCell>
        <mxCell id="fqKE6zB5EEerR9ECs1fo-108" value="createdAt (date)&amp;nbsp;" style="text;strokeColor=default;fillColor=none;spacingLeft=4;spacingRight=4;overflow=hidden;rotatable=0;points=[[0,0.5],[1,0.5]];portConstraint=eastwest;fontSize=12;whiteSpace=wrap;html=1;" vertex="1" parent="fqKE6zB5EEerR9ECs1fo-100">
          <mxGeometry y="206" width="270" height="30" as="geometry" />
        </mxCell>
        <mxCell id="fqKE6zB5EEerR9ECs1fo-109" value="updatedAt (date)" style="text;strokeColor=default;fillColor=none;spacingLeft=4;spacingRight=4;overflow=hidden;rotatable=0;points=[[0,0.5],[1,0.5]];portConstraint=eastwest;fontSize=12;whiteSpace=wrap;html=1;" vertex="1" parent="fqKE6zB5EEerR9ECs1fo-100">
          <mxGeometry y="236" width="270" height="30" as="geometry" />
        </mxCell>
        <mxCell id="fqKE6zB5EEerR9ECs1fo-112" style="edgeStyle=orthogonalEdgeStyle;rounded=0;orthogonalLoop=1;jettySize=auto;html=1;exitX=1;exitY=0.5;exitDx=0;exitDy=0;entryX=1;entryY=0.5;entryDx=0;entryDy=0;" edge="1" parent="1" source="fqKE6zB5EEerR9ECs1fo-106" target="fqKE6zB5EEerR9ECs1fo-2">
          <mxGeometry relative="1" as="geometry" />
        </mxCell>
        <mxCell id="fqKE6zB5EEerR9ECs1fo-113" style="edgeStyle=orthogonalEdgeStyle;rounded=0;orthogonalLoop=1;jettySize=auto;html=1;exitX=0;exitY=0.5;exitDx=0;exitDy=0;entryX=0;entryY=0.5;entryDx=0;entryDy=0;" edge="1" parent="1" source="fqKE6zB5EEerR9ECs1fo-4" target="fqKE6zB5EEerR9ECs1fo-101">
          <mxGeometry relative="1" as="geometry" />
        </mxCell>
        <mxCell id="fqKE6zB5EEerR9ECs1fo-114" style="edgeStyle=orthogonalEdgeStyle;rounded=0;orthogonalLoop=1;jettySize=auto;html=1;exitX=1;exitY=0.5;exitDx=0;exitDy=0;entryX=0;entryY=0.5;entryDx=0;entryDy=0;" edge="1" parent="1" source="fqKE6zB5EEerR9ECs1fo-11" target="fqKE6zB5EEerR9ECs1fo-15">
          <mxGeometry relative="1" as="geometry">
            <Array as="points">
              <mxPoint x="671" y="-2089" />
              <mxPoint x="671" y="-2647" />
            </Array>
          </mxGeometry>
        </mxCell>
        <mxCell id="fqKE6zB5EEerR9ECs1fo-117" style="edgeStyle=orthogonalEdgeStyle;rounded=0;orthogonalLoop=1;jettySize=auto;html=1;exitX=0;exitY=0.5;exitDx=0;exitDy=0;entryX=0;entryY=0.5;entryDx=0;entryDy=0;" edge="1" parent="1" source="fqKE6zB5EEerR9ECs1fo-24" target="fqKE6zB5EEerR9ECs1fo-2">
          <mxGeometry relative="1" as="geometry" />
        </mxCell>
        <mxCell id="fqKE6zB5EEerR9ECs1fo-119" style="edgeStyle=orthogonalEdgeStyle;rounded=0;orthogonalLoop=1;jettySize=auto;html=1;exitX=0;exitY=0.5;exitDx=0;exitDy=0;entryX=1;entryY=0.5;entryDx=0;entryDy=0;" edge="1" parent="1" source="fqKE6zB5EEerR9ECs1fo-118" target="fqKE6zB5EEerR9ECs1fo-15">
          <mxGeometry relative="1" as="geometry" />
        </mxCell>
        <mxCell id="fqKE6zB5EEerR9ECs1fo-121" style="edgeStyle=orthogonalEdgeStyle;rounded=0;orthogonalLoop=1;jettySize=auto;html=1;exitX=0;exitY=0.5;exitDx=0;exitDy=0;" edge="1" parent="1" source="fqKE6zB5EEerR9ECs1fo-46" target="fqKE6zB5EEerR9ECs1fo-53">
          <mxGeometry relative="1" as="geometry" />
        </mxCell>
        <mxCell id="fqKE6zB5EEerR9ECs1fo-125" style="edgeStyle=orthogonalEdgeStyle;rounded=0;orthogonalLoop=1;jettySize=auto;html=1;exitX=1;exitY=0.5;exitDx=0;exitDy=0;entryX=0.75;entryY=0;entryDx=0;entryDy=0;" edge="1" parent="1" source="fqKE6zB5EEerR9ECs1fo-68" target="fqKE6zB5EEerR9ECs1fo-60">
          <mxGeometry relative="1" as="geometry" />
        </mxCell>
        <mxCell id="fqKE6zB5EEerR9ECs1fo-126" style="edgeStyle=orthogonalEdgeStyle;rounded=0;orthogonalLoop=1;jettySize=auto;html=1;exitX=1;exitY=0.5;exitDx=0;exitDy=0;entryX=0.25;entryY=0;entryDx=0;entryDy=0;" edge="1" parent="1" source="fqKE6zB5EEerR9ECs1fo-49" target="fqKE6zB5EEerR9ECs1fo-60">
          <mxGeometry relative="1" as="geometry" />
        </mxCell>
        <mxCell id="fqKE6zB5EEerR9ECs1fo-130" style="edgeStyle=orthogonalEdgeStyle;rounded=0;orthogonalLoop=1;jettySize=auto;html=1;exitX=1;exitY=0.5;exitDx=0;exitDy=0;entryX=0.75;entryY=0;entryDx=0;entryDy=0;" edge="1" parent="1" source="fqKE6zB5EEerR9ECs1fo-94" target="fqKE6zB5EEerR9ECs1fo-56">
          <mxGeometry relative="1" as="geometry">
            <Array as="points">
              <mxPoint x="995" y="-2527" />
              <mxPoint x="995" y="-2232" />
              <mxPoint x="911" y="-2232" />
            </Array>
          </mxGeometry>
        </mxCell>
        <mxCell id="fqKE6zB5EEerR9ECs1fo-132" style="edgeStyle=orthogonalEdgeStyle;rounded=0;orthogonalLoop=1;jettySize=auto;html=1;exitX=0;exitY=0.5;exitDx=0;exitDy=0;entryX=0.5;entryY=0;entryDx=0;entryDy=0;" edge="1" parent="1" source="fqKE6zB5EEerR9ECs1fo-89" target="fqKE6zB5EEerR9ECs1fo-90">
          <mxGeometry relative="1" as="geometry">
            <Array as="points">
              <mxPoint x="711" y="-2587" />
              <mxPoint x="711" y="-2352" />
              <mxPoint x="851" y="-2352" />
            </Array>
          </mxGeometry>
        </mxCell>
        <mxCell id="fqKE6zB5EEerR9ECs1fo-133" style="edgeStyle=orthogonalEdgeStyle;rounded=0;orthogonalLoop=1;jettySize=auto;html=1;exitX=1;exitY=0.5;exitDx=0;exitDy=0;entryX=0.5;entryY=0;entryDx=0;entryDy=0;" edge="1" parent="1" source="fqKE6zB5EEerR9ECs1fo-5" target="fqKE6zB5EEerR9ECs1fo-56">
          <mxGeometry relative="1" as="geometry">
            <Array as="points">
              <mxPoint x="637" y="-2244" />
              <mxPoint x="851" y="-2244" />
            </Array>
          </mxGeometry>
        </mxCell>
        <mxCell id="fqKE6zB5EEerR9ECs1fo-134" style="edgeStyle=orthogonalEdgeStyle;rounded=0;orthogonalLoop=1;jettySize=auto;html=1;exitX=0;exitY=0.5;exitDx=0;exitDy=0;entryX=0.25;entryY=0;entryDx=0;entryDy=0;" edge="1" parent="1" source="fqKE6zB5EEerR9ECs1fo-36" target="fqKE6zB5EEerR9ECs1fo-56">
          <mxGeometry relative="1" as="geometry">
            <Array as="points">
              <mxPoint x="696" y="-2003" />
              <mxPoint x="696" y="-2228" />
              <mxPoint x="791" y="-2228" />
            </Array>
          </mxGeometry>
        </mxCell>
      </root>
    </mxGraphModel>
  </diagram>
</mxfile>
